<svg width="632" height="458" viewBox="0 0 632 458" fill="none" xmlns="http://www.w3.org/2000/svg">
<path fill-rule="evenodd" clip-rule="evenodd" d="M0.5 370.5V211.769L0.500689 211.537C0.749825 127.803 68.707 60 152.5 60C193.394 60 230.494 76.1328 257.826 102.408L267.804 112L276.333 101.099C309.026 59.3174 359.878 32.5 417 32.5C515.583 32.5 595.5 112.417 595.5 211C595.5 211.158 595.5 211.313 595.499 211.468L595.467 224H595.5V370.5C595.5 418.825 556.325 458 508 458H88C39.6751 458 0.5 418.825 0.5 370.5Z" fill="url(#paint0_linear_1101_1127)"/>
<path d="M317 212C317 121.149 243.351 47.5 152.5 47.5" stroke="white" stroke-width="25" stroke-linecap="round"/>
<path d="M89.5118 305.745C97.2438 305.745 103.512 312.013 103.512 319.745V381.675C103.512 389.407 97.2438 395.675 89.5118 395.675H79.2168C71.4848 395.675 65.2168 389.407 65.2168 381.675V319.745C65.2168 312.013 71.4848 305.745 79.2168 305.745H89.5118Z" fill="white"/>
<path d="M112.513 319.745C112.513 312.013 118.781 305.745 126.513 305.745H180.853C188.585 305.745 194.853 312.013 194.853 319.745V321.07C194.853 328.802 188.585 335.07 180.853 335.07H174.233C173.681 335.07 173.233 335.517 173.233 336.07V381.675C173.233 389.407 166.965 395.675 159.233 395.675H148.133C140.401 395.675 134.133 389.407 134.133 381.675V336.07C134.133 335.517 133.686 335.07 133.133 335.07H126.513C118.781 335.07 112.513 328.802 112.513 321.07V319.745Z" fill="white"/>
<path d="M313.308 305.745C321.04 305.745 327.308 312.013 327.308 319.745V381.675C327.308 389.407 321.04 395.675 313.308 395.675H292.373C286.21 395.675 280.772 391.645 278.979 385.749L274.755 371.862C274.42 370.762 272.798 371.004 272.798 372.153V381.675C272.798 389.407 266.53 395.675 258.798 395.675H255.288C247.556 395.675 241.288 389.407 241.288 381.675V319.745C241.288 312.013 247.556 305.745 255.288 305.745H274.724C280.701 305.745 286.018 309.538 287.963 315.19L297.018 341.51L302.123 340.705L294.533 319.2C294.533 311.769 300.557 305.745 307.988 305.745H313.308Z" fill="white"/>
<path d="M337.234 350.71C337.234 320.005 355.634 304.02 380.589 304.02C405.659 304.02 424.059 320.005 424.059 350.71C424.059 381.415 405.659 397.4 380.589 397.4C355.634 397.4 337.234 381.53 337.234 350.71Z" fill="white"/>
<path d="M453.34 395.56C446.429 395.56 440.552 390.517 439.503 383.686L430.005 321.871C428.702 313.391 435.263 305.745 443.842 305.745H450.777C457.855 305.745 463.82 311.027 464.675 318.054L466.062 329.457C466.201 330.594 467.833 330.643 468.039 329.516L470.519 315.926C471.595 310.029 476.733 305.745 482.727 305.745C488.721 305.745 493.859 310.029 494.935 315.926L497.415 329.516C497.621 330.643 499.253 330.594 499.392 329.457L500.779 318.054C501.634 311.027 507.599 305.745 514.677 305.745H521.612C530.191 305.745 536.752 313.391 535.449 321.871L525.951 383.686C524.902 390.517 519.025 395.56 512.114 395.56H499.75C493.169 395.56 487.476 390.976 486.072 384.546L483.704 373.699C483.475 372.65 481.979 372.65 481.75 373.699L479.382 384.546C477.978 390.976 472.285 395.56 465.704 395.56H453.34Z" fill="white"/>
<path d="M288.359 305.744L300.145 340" stroke="#FF7651" stroke-width="7" stroke-linecap="round"/>
<path d="M367.035 345.803V345.803C375.524 350.787 385.203 353.381 395.047 353.308V353.308" stroke="#FF7651" stroke-width="7" stroke-linecap="round"/>
<circle cx="600" cy="32" r="32" fill="#26CF9F"/>
<defs>
<linearGradient id="paint0_linear_1101_1127" x1="478.323" y1="34.4" x2="743.284" y2="155.644" gradientUnits="userSpaceOnUse">
<stop stop-color="#FF7651"/>
<stop offset="1" stop-color="#FF6A42"/>
</linearGradient>
</defs>
</svg>
